<?xml version="1.0" encoding="utf-8"?>
<!-- Generator: Adobe Illustrator 26.5.0, SVG Export Plug-In . SVG Version: 6.00 Build 0)  -->
<svg version="1.1" id="Capa_1" xmlns="http://www.w3.org/2000/svg" xmlns:xlink="http://www.w3.org/1999/xlink" x="0px" y="0px"
	 viewBox="0 0 800 800" style="enable-background:new 0 0 800 800;" xml:space="preserve">
<style type="text/css">
	.st0{fill:#A3B18A;}
	.st1{fill:#3A5A40;}
	.st2{fill:#344E41;}
	.st3{fill:none;stroke:#344E41;stroke-width:2.9069;stroke-miterlimit:10;}
</style>
<g>
	<g>
		<path class="st0" d="M665.43,415.03c-22.2-2.57-45.29,3.61-63.24,16.92c-6.05,4.49-11.95,10.7-11.79,18.23
			c0.14,6.66,5.16,12.36,10.98,15.61c6.2,3.47,13.56,4.81,20.59,3.75c15.97-2.4,27.51-15.92,40.88-24.97
			c10.21-6.91,22.05-11.41,34.28-13.02c-11.2-6.36-22.75-12.1-34.58-17.19"/>
	</g>
	<path class="st1" d="M232.51,364.09c-0.16-9.21-1.09-16.85-2.81-22.94c-1.72-6.09-4.72-10.65-9.01-13.69
		c-4.29-3.04-10.5-4.48-18.61-4.33h-19.9l-0.23,127.58c0,4.21-0.04,7.84-0.12,10.89c-0.08,3.04-0.27,5.58-0.59,7.61
		c3.28-0.15,6.51-0.31,9.71-0.47c3.2-0.15,6.44-0.31,9.72-0.47v10.3h-55.01v-7.73c5.93-0.31,9.95-1.71,12.06-4.21
		c2.11-2.5,3.28-5.89,3.51-10.18c0.23-4.29,0.35-9.09,0.35-14.4l0.23-118.69l-24.11,0.23c-9.83,0-16.78,3.28-20.83,9.83
		c-4.06,6.56-6.09,16.78-6.09,30.67h-8.66l1.4-49.39h136.48l1.4,49.39H232.51z"/>
	<path class="st1" d="M302.28,482.3c-10.77,0-20.48-2.54-29.15-7.61c-8.66-5.07-15.49-12.25-20.48-21.54
		c-5-9.28-7.49-20.25-7.49-32.89c0-10.92,2.46-21.15,7.37-30.67c4.92-9.52,11.82-17.21,20.72-23.06c8.9-5.85,19.2-8.78,30.9-8.78
		c6.55,0,12.68,1.05,18.38,3.16c5.7,2.11,10.73,5.31,15.1,9.6c4.37,4.29,7.8,9.68,10.3,16.15c2.49,6.48,3.75,14.09,3.75,22.82
		l-82.4,1.4c0,11.86,1.29,22.28,3.86,31.25c2.58,8.98,6.75,15.92,12.52,20.83c5.77,4.92,13.19,7.37,22.24,7.37
		c4.84,0,9.79-0.86,14.87-2.57c5.07-1.71,9.79-4.06,14.16-7.02c4.37-2.96,7.88-6.24,10.53-9.83l5.62,4.68
		c-4.21,6.55-9.29,11.79-15.22,15.68c-5.93,3.9-12.02,6.71-18.26,8.43C313.35,481.44,307.58,482.3,302.28,482.3z M269.97,401.07
		h59.69c0-5.62-0.82-11.04-2.46-16.27c-1.64-5.23-4.33-9.52-8.08-12.88c-3.74-3.35-8.66-5.03-14.75-5.03
		c-9.05,0-16.58,2.69-22.59,8.08C275.78,380.36,271.84,389.06,269.97,401.07z"/>
	<path class="st1" d="M372.5,471.54c4.83,0,8.19-1.21,10.07-3.63c1.87-2.42,2.96-5.77,3.28-10.07c0.31-4.29,0.47-9.25,0.47-14.87
		V389.6c0-2.5,0.04-4.99,0.12-7.49c0.08-2.49,0.35-5.07,0.82-7.73c-2.81,0.16-5.58,0.28-8.31,0.35c-2.73,0.08-5.5,0.2-8.31,0.35
		v-9.6h7.26c6.71,0,11.35-0.66,13.93-1.99c2.57-1.32,4.72-2.77,6.44-4.33h6.79c0.31,2.5,0.55,5.58,0.7,9.25
		c0.15,3.67,0.31,8.31,0.47,13.93c2.34-3.9,5.54-7.73,9.6-11.47c4.06-3.74,8.62-6.87,13.69-9.36c5.07-2.49,10.42-3.75,16.04-3.75
		c4.37,0,8.19,1.17,11.47,3.51c3.28,2.34,4.92,6.09,4.92,11.24c0,1.25-0.39,2.77-1.17,4.56c-0.78,1.8-2.03,3.36-3.75,4.68
		c-1.72,1.33-3.98,1.99-6.79,1.99c-3.43-0.15-6.17-1.52-8.19-4.1c-2.03-2.57-2.81-5.58-2.34-9.01c-3.9-0.15-7.92,0.86-12.06,3.04
		c-4.14,2.19-8,5.19-11.59,9.01c-3.59,3.83-6.79,8.31-9.6,13.46l0.24,57.59c0,3.12-0.04,5.89-0.12,8.31
		c-0.08,2.42-0.35,4.96-0.82,7.61c2.49-0.15,4.95-0.27,7.37-0.35c2.42-0.08,4.88-0.19,7.38-0.35v9.6H372.5V471.54z"/>
	<path class="st1" d="M473.87,471.54c4.84,0,8.19-1.21,10.07-3.63c1.87-2.42,2.96-5.77,3.28-10.07c0.31-4.29,0.47-9.25,0.47-14.87
		V389.6c0-2.5,0.04-4.99,0.12-7.49c0.08-2.49,0.35-5.07,0.82-7.73c-2.81,0.16-5.58,0.28-8.31,0.35c-2.73,0.08-5.5,0.2-8.31,0.35
		v-9.6h7.26c6.71,0,11.35-0.66,13.93-1.99c2.57-1.32,4.72-2.77,6.44-4.33h6.79c0.31,2.5,0.55,5.58,0.7,9.25
		c0.15,3.67,0.31,8.31,0.47,13.93c2.34-3.9,5.54-7.73,9.6-11.47c4.06-3.74,8.62-6.87,13.69-9.36c5.07-2.49,10.42-3.75,16.04-3.75
		c4.37,0,8.19,1.17,11.47,3.51c3.28,2.34,4.92,6.09,4.92,11.24c0,1.25-0.39,2.77-1.17,4.56c-0.78,1.8-2.03,3.36-3.75,4.68
		c-1.72,1.33-3.98,1.99-6.79,1.99c-3.43-0.15-6.17-1.52-8.19-4.1c-2.03-2.57-2.81-5.58-2.34-9.01c-3.9-0.15-7.92,0.86-12.06,3.04
		c-4.14,2.19-8,5.19-11.59,9.01c-3.59,3.83-6.79,8.31-9.6,13.46l0.23,57.59c0,3.12-0.04,5.89-0.12,8.31
		c-0.08,2.42-0.35,4.96-0.82,7.61c2.49-0.15,4.95-0.27,7.37-0.35c2.42-0.08,4.88-0.19,7.37-0.35v9.6h-47.99V471.54z"/>
	<path class="st1" d="M662.6,469.66c0.31-3.12,0.55-5.93,0.7-8.43c0.15-2.49,0.23-4.99,0.23-7.49c0-5.91,0.04-11.77,0.12-17.61
		c-8.22,8.35-17.38,17.36-21.22,20.12c-0.01,0.01-0.02,0.01-0.03,0.02c-4.28,3.83-8.58,6.86-12.93,9.06
		c-4.76,2.42-10.34,3.63-16.74,3.63c-4.84,0-9.01-1.44-12.52-4.33c-3.51-2.89-5.42-7.22-5.74-12.99c-0.16-5.46,1.29-10.1,4.33-13.93
		c3.04-3.82,7.02-6.91,11.94-9.25c4.92-2.34,10.3-4.1,16.15-5.27c5.85-1.17,11.43-1.83,16.74-1.99c0,0,8.7-1.09,20.12-1.38
		c0-0.44,0.01-0.87,0.01-1.31c0-5.85,0-11.67,0-17.44c0.15-14.98-2.89-25.94-9.13-32.89c-6.24-6.94-15.92-10.42-29.03-10.42
		c-8.9,0-16.85,1.25-23.88,3.75c-7.02,2.5-12.52,5.85-16.5,10.07c-3.98,4.21-5.97,8.98-5.97,14.28c0,3.12,0.86,5.82,2.58,8.08
		c1.71,2.26,4.21,3.39,7.49,3.39c3.9,0.16,6.63-0.97,8.19-3.39c1.56-2.42,2.34-4.56,2.34-6.44c0-1.4-0.2-2.93-0.58-4.56
		c-0.39-1.64-1.21-3.08-2.46-4.33c2.18-4.52,5.65-7.73,10.42-9.6c4.76-1.87,9.4-2.73,13.93-2.57c6.87,0.16,11.86,1.8,14.98,4.92
		c3.12,3.12,5.15,7.1,6.09,11.94c0.94,4.84,1.4,9.99,1.4,15.45v14.51c-7.81-0.15-15.88,0.58-24.23,2.22
		c-8.35,1.64-16.08,4.14-23.18,7.49c-7.1,3.36-12.88,7.65-17.32,12.88c-4.45,5.23-6.67,11.43-6.67,18.61
		c0,7.81,2.89,14.4,8.66,19.78c5.77,5.38,14.59,8.08,26.45,8.08c6.87,0,13.38-1.52,19.55-4.56c6.16-3.04,11.9-7.22,17.21-12.52
		c0.31,2.19,0.55,4.29,0.7,6.32c0.15,2.03,0.47,4.37,0.94,7.02h33.48v-9.83c-2.81,0.16-5.58,0.32-8.31,0.47
		C668.18,469.35,665.41,469.51,662.6,469.66z"/>
	<g>
		<path class="st2" d="M672.51,426.89c-21.53,2.13-42.08,10-58.14,24.71C627.24,433.97,651.04,424.75,672.51,426.89L672.51,426.89z"
			/>
	</g>
	<path class="st3" d="M634,440.7"/>
	<g>
		<path class="st2" d="M628.17,429.1c-0.61,3.49-1.98,6.79-3.07,10.09c-0.37,1.09-0.69,2.18-1.15,3.47
			c-0.74-1.12-1.07-2.46-1.11-3.77C622.82,435.02,624.75,431.07,628.17,429.1L628.17,429.1z"/>
	</g>
	<g>
		<path class="st2" d="M646.35,423.99c0.17,2.35-0.4,4.27-1.39,6.29c-0.32,0.62-0.66,1.25-1.2,2.04c-0.66-0.68-0.96-1.55-1.06-2.39
			C642.49,427.42,643.86,424.82,646.35,423.99L646.35,423.99z"/>
	</g>
	<g>
		<path class="st2" d="M621.28,445.35c3.32-1.21,6.87-1.68,10.27-2.39c1.13-0.22,2.23-0.5,3.58-0.74c-0.6,1.2-1.59,2.16-2.71,2.85
			C629.08,447.02,624.69,447.32,621.28,445.35L621.28,445.35z"/>
	</g>
	<g>
		<path class="st2" d="M632.86,436.72c4.27,0.23,7.8,0.91,11.97-0.37C643.05,441.38,635.32,440.97,632.86,436.72L632.86,436.72z"/>
	</g>
	<g>
		<path class="st2" d="M648.85,430.9c4.27,0.23,7.8,0.91,11.97-0.37C659.04,435.56,651.3,435.16,648.85,430.9L648.85,430.9z"/>
	</g>
</g>
</svg>
